<svg width="256" height="256" viewBox="0 0 256 256" fill="none" xmlns="http://www.w3.org/2000/svg">
<rect width="256" height="256" rx="32" fill="#333E59"/>
<path d="M222.062 61.2812L215.187 168.469L149.875 28L222.062 61.2812ZM176.75 199.875L127.531 228L78.3125 199.875L88.3125 175.656H166.906L176.75 199.875ZM127.531 81.2812L153.312 144.094H101.75L127.531 81.2812ZM39.875 168.469L33 61.2812L105.188 28L39.875 168.469Z" fill="url(#paint0_linear_66_59)"/>
<path d="M222.062 61.2812L215.187 168.469L149.875 28L222.062 61.2812ZM176.75 199.875L127.531 228L78.3125 199.875L88.3125 175.656H166.906L176.75 199.875ZM127.531 81.2812L153.312 144.094H101.75L127.531 81.2812ZM39.875 168.469L33 61.2812L105.188 28L39.875 168.469Z" fill="url(#paint1_linear_66_59)"/>
<defs>
<linearGradient id="paint0_linear_66_59" x1="50.5063" y1="158.828" x2="200.945" y2="87.3375" gradientUnits="userSpaceOnUse">
<stop stop-color="#E40035"/>
<stop offset="0.24" stop-color="#F60A48"/>
<stop offset="0.352" stop-color="#F20755"/>
<stop offset="0.494" stop-color="#DC087D"/>
<stop offset="0.745" stop-color="#9717E7"/>
<stop offset="1" stop-color="#6C00F5"/>
</linearGradient>
<linearGradient id="paint1_linear_66_59" x1="72.4266" y1="48.2016" x2="170.878" y2="160.508" gradientUnits="userSpaceOnUse">
<stop stop-color="#FF31D9"/>
<stop offset="1" stop-color="#FF5BE1" stop-opacity="0"/>
</linearGradient>
</defs>
</svg>
