<svg width="256" height="256" viewBox="0 0 256 256" fill="none" xmlns="http://www.w3.org/2000/svg">
<path d="M213.5 0H42.5C19.0279 0 0 19.5158 0 43.5897V212.41C0 236.484 19.0279 256 42.5 256H213.5C236.972 256 256 236.484 256 212.41V43.5897C256 19.5158 236.972 0 213.5 0Z" fill="#330000"/>
<path d="M124.054 153.631H84.3841L76.3121 179.347C76.2023 179.816 75.9363 180.231 75.5601 180.52C75.1838 180.81 74.7209 180.955 74.2511 180.932H54.1581C53.0128 180.932 52.6121 180.286 52.9561 178.994L87.3031 77.5395C87.6464 76.4831 87.9898 75.2797 88.3331 73.9293C88.7831 71.5785 89.0131 69.1908 89.0201 66.7959C88.9967 66.6284 89.0117 66.4576 89.0638 66.297C89.1159 66.1365 89.2038 65.9906 89.3204 65.8709C89.437 65.7512 89.5792 65.6609 89.7357 65.6073C89.8922 65.5537 90.0587 65.5383 90.2221 65.5621H117.528C118.328 65.5621 118.786 65.8561 118.902 66.4441L157.885 179.17C158.228 180.346 157.885 180.934 156.855 180.932H134.529C134.146 180.975 133.76 180.874 133.445 180.647C133.129 180.42 132.904 180.084 132.812 179.7L124.054 153.631ZM90.5661 131.438H117.7L117.313 130.128L116.692 128.054L116.249 126.598L115.542 124.305L114.039 119.477L112.717 115.197L109.284 104.048C108.43 101.277 107.61 98.4944 106.824 95.7016L106.196 93.4349L105.462 90.7549L104.342 86.6011L104.132 85.8185H103.961C103.102 90.0462 102.055 94.2318 100.825 98.3621L98.2771 106.768L96.8751 111.412L95.4601 116.114C95.2048 116.963 94.9498 117.803 94.6951 118.633L93.9351 121.092L93.1791 123.494L92.4271 125.837L91.6791 128.121C91.4311 128.873 91.1834 129.615 90.9361 130.347L90.5661 131.438ZM181.067 84.2329C179.316 84.3047 177.569 83.9967 175.941 83.329C174.314 82.6613 172.842 81.6489 171.622 80.358C170.406 79.0103 169.462 77.4297 168.843 75.7068C168.224 73.9839 167.942 72.1526 168.015 70.318C167.953 68.5017 168.265 66.6923 168.931 65.0081C169.596 63.3238 170.601 61.8026 171.879 60.5436C174.344 58.1166 177.627 56.7584 181.044 56.7518L181.41 56.7559C185.532 56.7559 188.767 58.0182 191.114 60.5426C192.299 61.8547 193.219 63.3934 193.823 65.0708C194.427 66.7482 194.703 68.5312 194.634 70.318C194.707 72.1601 194.417 73.9983 193.783 75.7234C193.149 77.4484 192.183 79.0249 190.942 80.359C189.69 81.6245 188.204 82.6203 186.571 83.2879C184.938 83.9555 183.192 84.2813 181.434 84.2462L181.067 84.2329ZM169.217 179.17V94.9775C169.216 93.9204 169.674 93.3918 170.591 93.3918H191.715C192.63 93.3918 193.088 93.9204 193.089 94.9775V179.17C193.089 180.346 192.631 180.934 191.715 180.932H170.763C169.787 180.932 169.273 180.405 169.222 179.351L169.217 179.17Z" fill="#FF9A00"/>
</svg>
