<svg width="544" height="256" viewBox="0 0 544 256" fill="none" xmlns="http://www.w3.org/2000/svg">
<rect width="544" height="256" rx="32" fill="#333E59"/>
<path d="M31 28.2301C31 28.2301 49.9076 25.6885 62.5137 37.5881C70.2938 44.9279 72.5605 56.629 72.5605 56.629L98.3026 163.433L119.714 76.0192C121.793 66.7286 125.555 55.2371 131.498 47.4704C139.082 37.5792 154.48 36.9547 156.121 36.9547C157.763 36.9547 173.153 37.5802 180.73 47.4704C186.673 55.2371 190.434 66.7207 192.522 76.0192L213.932 163.433L239.667 56.628C239.667 56.628 241.943 44.9289 249.723 37.5881C262.329 25.6875 281.229 28.2291 281.229 28.2291L231.934 227.828C231.934 227.828 215.677 229.087 207.537 224.646C196.848 218.812 191.773 214.312 185.298 187.148C182.026 173.253 178.794 159.348 175.602 145.432L174.39 140.19C171.331 126.876 168.255 113.565 165.162 100.259L163.989 95.2596C162.91 90.7265 162.168 87.6766 161.902 86.7603C161.174 84.2515 160.306 78.2768 156.115 78.2768C152.017 78.2768 151.071 84.2594 150.328 86.7603C150.054 87.6766 149.312 90.7175 148.24 95.2586L147.067 100.259C144.57 110.953 142.094 121.653 139.639 132.357L138.435 137.574C134.648 154.113 130.816 170.64 126.939 187.155C120.465 214.312 115.382 218.821 104.692 224.646C96.5521 229.087 80.295 227.828 80.295 227.828L31 28.2301ZM328.132 61.3368V68.5445H328.148V189.032C328.061 213.757 325.818 219.248 316.059 224.939C308.473 229.363 296.869 227.689 296.869 227.689V92.717C296.869 85.9432 298.839 81.5014 306.104 77.5183C310.444 75.1356 314.486 73.3099 318.693 70.6105C324.442 66.9441 327.358 62.5857 327.999 61.5522L328.132 61.3368ZM343.787 28.8962C343.787 28.8962 369.255 24.0881 381.869 36.8128C388.961 43.9708 396.804 56.1703 398.58 58.9868L398.915 59.52L398.954 59.5865L421.163 95.0521C422.234 96.8937 423.641 98.9021 425.894 98.9021C428.138 98.9021 429.553 96.9017 430.632 95.0521L452.833 59.5865L452.871 59.52L453.207 58.9868C454.982 56.1703 462.826 43.9708 469.926 36.8048C482.531 24.0881 508 28.8883 508 28.8883L447.656 128.35L507.836 227.488C507.836 227.488 481.781 231.204 469.167 218.48C461.097 210.347 452.832 197.105 452.832 197.105L430.624 161.649C429.553 159.799 428.137 157.791 425.894 157.791C423.642 157.791 422.234 159.791 421.154 161.649L398.954 197.105C398.954 197.105 391.142 210.347 383.081 218.48C370.467 231.204 343.943 227.488 343.943 227.488L404.124 128.35L343.787 28.8962ZM328.069 28.0047H328.148C328.148 41.2545 326.974 49.1294 319.468 55.246C315.983 58.0996 312.14 60.4188 308.051 62.136C303.905 63.8611 300.109 66.4189 296.869 69.6703C296.869 45.5375 300.176 36.7959 309.068 31.6215C314.596 28.4048 323.675 28.0375 326.936 28.0047H328.069Z" fill="black"/>
</svg>
