{
	"asset":{
		"generator":"Khronos glTF Blender I/O v4.0.44",
		"version":"2.0"
	},
	"scene":0,
	"scenes":[
		{
			"name":"Scene",
			"nodes":[
				0
			]
		}
	],
	"nodes":[
		{
			"mesh":0,
			"name":"Mesh_0",
			"rotation":[
				-0.7071069478988647,
				0,
				0,
				0.7071066498756409
			],
			"scale":[
				61.9012451171875,
				61.9012336730957,
				61.9012336730957
			]
		}
	],
	"materials":[
		{
			"name":"Gold",
			"pbrMetallicRoughness":{
				"baseColorFactor":[
					0.9046613574028015,
					0.6239604353904724,
					0.09758736193180084,
					1
				],
				"metallicFactor":0,
				"roughnessFactor":0.498039186000824
			}
		},
		{
			"doubleSided":true,
			"emissiveFactor":[
				0.9317413568496704,
				1,
				0.04282684251666069
			],
			"name":"Material.001",
			"pbrMetallicRoughness":{
				"baseColorFactor":[
					0,
					0,
					0,
					1
				]
			}
		}
	],
	"meshes":[
		{
			"name":"Mesh_0",
			"primitives":[
				{
					"attributes":{
						"POSITION":0,
						"NORMAL":1
					},
					"indices":2,
					"material":0
				},
				{
					"attributes":{
						"POSITION":3,
						"NORMAL":4
					},
					"indices":5,
					"material":1
				}
			]
		}
	],
	"accessors":[
		{
			"bufferView":0,
			"componentType":5126,
			"count":49221,
			"max":[
				0.014692388474941254,
				0.010158523917198181,
				0.053651534020900726
			],
			"min":[
				-0.014692388474941254,
				-0.010158531367778778,
				3.725290298461914e-09
			],
			"type":"VEC3"
		},
		{
			"bufferView":1,
			"componentType":5126,
			"count":49221,
			"type":"VEC3"
		},
		{
			"bufferView":2,
			"componentType":5123,
			"count":98070,
			"type":"SCALAR"
		},
		{
			"bufferView":3,
			"componentType":5126,
			"count":721,
			"max":[
				0.010255619883537292,
				0.003490924835205078,
				0.05213065817952156
			],
			"min":[
				-0.010152086615562439,
				-0.0031878650188446045,
				0.03270251303911209
			],
			"type":"VEC3"
		},
		{
			"bufferView":4,
			"componentType":5126,
			"count":721,
			"type":"VEC3"
		},
		{
			"bufferView":5,
			"componentType":5123,
			"count":1746,
			"type":"SCALAR"
		}
	],
	"bufferViews":[
		{
			"buffer":0,
			"byteLength":590652,
			"byteOffset":0,
			"target":34962
		},
		{
			"buffer":0,
			"byteLength":590652,
			"byteOffset":590652,
			"target":34962
		},
		{
			"buffer":0,
			"byteLength":196140,
			"byteOffset":1181304,
			"target":34963
		},
		{
			"buffer":0,
			"byteLength":8652,
			"byteOffset":1377444,
			"target":34962
		},
		{
			"buffer":0,
			"byteLength":8652,
			"byteOffset":1386096,
			"target":34962
		},
		{
			"buffer":0,
			"byteLength":3492,
			"byteOffset":1394748,
			"target":34963
		}
	],
	"buffers":[
		{
			"byteLength":1398240,
			"uri":"myThropy.bin"
		}
	]
}
