<svg width="56" height="56" viewBox="0 0 56 56" fill="none" xmlns="http://www.w3.org/2000/svg">
<path fill-rule="evenodd" clip-rule="evenodd" d="M6 28C6 22.1652 8.31785 16.5694 12.4436 12.4436C16.5694 8.31785 22.1652 6 28 6C33.8348 6 39.4305 8.31785 43.5563 12.4436C47.6821 16.5694 50 22.1652 50 28C50 33.8348 47.6821 39.4305 43.5563 43.5563C39.4305 47.6821 33.8348 50 28 50C22.1652 50 16.5694 47.6821 12.4436 43.5563C8.31785 39.4305 6 33.8348 6 28ZM0 28C0 20.5739 2.94999 13.452 8.20101 8.20101C13.452 2.94999 20.5739 0 28 0C35.4261 0 42.548 2.94999 47.799 8.20101C53.05 13.452 56 20.5739 56 28C56 35.4261 53.05 42.548 47.799 47.799C42.548 53.05 35.4261 56 28 56C20.5739 56 13.452 53.05 8.20101 47.799C2.94999 42.548 0 35.4261 0 28ZM31 16C31 15.2044 30.6839 14.4413 30.1213 13.8787C29.5587 13.3161 28.7956 13 28 13C27.2044 13 26.4413 13.3161 25.8787 13.8787C25.3161 14.4413 25 15.2044 25 16V32.76L22.12 29.88C21.8454 29.5853 21.5141 29.3488 21.1462 29.1849C20.7782 29.0209 20.3809 28.9327 19.9781 28.9256C19.5753 28.9185 19.1752 28.9926 18.8016 29.1435C18.4281 29.2944 18.0887 29.519 17.8038 29.8038C17.519 30.0887 17.2944 30.4281 17.1435 30.8016C16.9926 31.1752 16.9185 31.5753 16.9256 31.9781C16.9327 32.3809 17.0209 32.7782 17.1849 33.1462C17.3488 33.5141 17.5853 33.8454 17.88 34.12L25.88 42.12C26.4425 42.6818 27.205 42.9974 28 42.9974C28.795 42.9974 29.5575 42.6818 30.12 42.12L38.12 34.12C38.4147 33.8454 38.6512 33.5141 38.8151 33.1462C38.9791 32.7782 39.0673 32.3809 39.0744 31.9781C39.0815 31.5753 39.0074 31.1752 38.8565 30.8016C38.7056 30.4281 38.481 30.0887 38.1962 29.8038C37.9113 29.519 37.5719 29.2944 37.1984 29.1435C36.8248 28.9926 36.4247 28.9185 36.0219 28.9256C35.6191 28.9327 35.2218 29.0209 34.8538 29.1849C34.4859 29.3488 34.1546 29.5853 33.88 29.88L31 32.76V16Z" fill="white"/>
</svg>
