<svg
    width="240"
    height="240"
    viewBox="0 0 240 240"
    fill="none"
    xmlns="http://www.w3.org/2000/svg"
>
    <path
        d="M240 91.4625L225.032 76.4947V55.3267L184.673 14.9678H163.506L148.538 0H91.4625L76.4947 14.9678H55.3267L14.9678 55.3267V76.4947L0 91.4625V148.541L14.9678 163.509V184.676L55.3298 225.032H76.4978L91.4655 240H148.543L163.512 225.032H184.679L225.038 184.673V163.505L240 148.538V91.4625ZM183.28 18.3278L221.672 56.7195V73.1348L166.865 18.3278H183.28ZM221.672 77.8867V162.116L162.116 221.672H77.8867L18.3278 162.113V77.8867L77.8867 18.3278H162.116L221.672 77.8867ZM92.8552 3.36H147.148L158.756 14.9678H81.2468L92.8552 3.36ZM18.3278 56.7195L56.7195 18.3278H73.1348L18.3278 73.1348V56.7195ZM3.363 147.148V92.8522L14.9708 81.2437V158.75L3.363 147.148ZM56.7195 221.672L18.3278 183.28V166.865L73.1348 221.672H56.7195ZM147.148 236.64H92.8552L81.2468 225.032H158.753L147.148 236.64ZM221.672 183.28L183.28 221.672H166.865L221.672 166.865V183.28ZM236.64 147.148L225.032 158.756V81.2467L236.64 92.8553V147.148Z"
        fill="#FFF"
    />
    <path
        d="M50.781 134.132L49.3404 140.855C49.1574 141.815 49.4227 142.556 50.1361 143.078C50.8405 143.608 51.9472 143.873 53.4565 143.873V146.412H42V143.873C43.3263 143.873 44.3096 143.645 44.9499 143.187C45.5901 142.73 46.0246 141.953 46.2533 140.855L56.5435 94H59.8364L70.4697 140.992C70.6983 142.135 71.1008 142.904 71.677 143.297C72.2441 143.681 73.2137 143.873 74.5858 143.873V146.412H58.6702V143.873C60.3166 143.873 61.4737 143.654 62.1414 143.215C62.8 142.785 63.0149 142.067 62.7863 141.061L61.3456 134.132H50.781ZM56.2005 109.504L51.3984 131.388H60.7282L56.2005 109.504ZM103.467 100.517L94.9604 119.314C97.1557 119.314 99.1451 119.977 100.929 121.303C102.712 122.63 104.116 124.4 105.141 126.613C106.174 128.836 106.691 131.342 106.691 134.132V137.288C106.691 139.254 107.149 140.841 108.063 142.049C108.978 143.265 110.19 143.873 111.699 143.873H112.454V146.412H111.699C107.263 146.412 104.002 145.337 101.917 143.187C99.8403 141.038 98.8021 137.653 98.8021 133.034V128.918C98.8021 126.952 98.2762 125.319 97.2243 124.02C96.1724 122.712 94.8461 122.058 93.2454 122.058H91.3931V119.314L100.243 99.9683C100.563 99.3281 100.403 98.7564 99.7625 98.2533C99.1222 97.7502 98.2076 97.4987 97.0185 97.4987V94.9604H108.475V97.4987C107.103 97.4987 106.051 97.7136 105.319 98.1435C104.588 98.5826 103.97 99.3738 103.467 100.517ZM76.8496 146.412V143.873C78.3131 143.873 79.365 143.645 80.0053 143.187C80.6456 142.73 80.9657 141.975 80.9657 140.923V100.449C80.9657 99.3967 80.6456 98.642 80.0053 98.1847C79.365 97.7274 78.3131 97.4987 76.8496 97.4987V94.9604H92.7652V97.4987C91.3017 97.4987 90.2498 97.7274 89.6095 98.1847C88.9692 98.642 88.6491 99.3967 88.6491 100.449V140.923C88.6491 141.975 88.9692 142.73 89.6095 143.187C90.2498 143.645 91.3017 143.873 92.7652 143.873V146.412H76.8496ZM119.794 134.132L118.354 140.855C118.171 141.815 118.431 142.556 119.136 143.078C119.849 143.608 120.96 143.873 122.47 143.873V146.412H111.013V143.873C112.339 143.873 113.323 143.645 113.963 143.187C114.603 142.73 115.038 141.953 115.266 140.855L125.557 94H128.85L139.483 140.992C139.712 142.135 140.109 142.904 140.677 143.297C141.253 143.681 142.227 143.873 143.599 143.873V146.412H127.683V143.873C129.33 143.873 130.482 143.654 131.141 143.215C131.809 142.785 132.028 142.067 131.799 141.061L130.359 134.132H119.794ZM125.214 109.504L120.412 131.388H129.741L125.214 109.504ZM172.466 100.517L163.96 119.314C166.155 119.314 168.145 119.977 169.928 121.303C171.712 122.63 173.12 124.4 174.154 126.613C175.179 128.836 175.691 131.342 175.691 134.132V137.288C175.691 139.254 176.148 140.841 177.063 142.049C177.977 143.265 179.189 143.873 180.699 143.873H181.453V146.412H180.699C176.262 146.412 173.006 145.337 170.93 143.187C168.844 141.038 167.802 137.653 167.802 133.034V128.918C167.802 126.952 167.276 125.319 166.224 124.02C165.172 122.712 163.846 122.058 162.245 122.058H160.393V119.314L169.242 99.9683C169.562 99.3281 169.402 98.7564 168.762 98.2533C168.122 97.7502 167.207 97.4987 166.018 97.4987V94.9604H177.474V97.4987C176.102 97.4987 175.05 97.7136 174.319 98.1435C173.587 98.5826 172.97 99.3738 172.466 100.517ZM145.849 146.412V143.873C147.313 143.873 148.364 143.645 149.005 143.187C149.645 142.73 149.965 141.975 149.965 140.923V100.449C149.965 99.3967 149.645 98.642 149.005 98.1847C148.364 97.7274 147.313 97.4987 145.849 97.4987V94.9604H161.765V97.4987C160.301 97.4987 159.249 97.7274 158.609 98.1847C157.969 98.642 157.649 99.3967 157.649 100.449V140.923C157.649 141.975 157.969 142.73 158.609 143.187C159.249 143.645 160.301 143.873 161.765 143.873V146.412H145.849ZM182.071 146.412V143.873C183.534 143.873 184.586 143.645 185.226 143.187C185.867 142.73 186.187 141.975 186.187 140.923V100.449C186.187 99.3967 185.867 98.642 185.226 98.1847C184.586 97.7274 183.534 97.4987 182.071 97.4987V94.9604H197.986V97.4987C196.523 97.4987 195.471 97.7274 194.831 98.1847C194.19 98.642 193.87 99.3967 193.87 100.449V140.923C193.87 141.975 194.19 142.73 194.831 143.187C195.471 143.645 196.523 143.873 197.986 143.873V146.412H182.071Z"
        fill="#FFF"
    />
</svg>